<?xml version="1.0" encoding="utf-8"?>
<!-- Generator: Adobe Illustrator 19.1.0, SVG Export Plug-In . SVG Version: 6.00 Build 0)  -->
<svg version="1.1" id="Layer_1" xmlns="http://www.w3.org/2000/svg" xmlns:xlink="http://www.w3.org/1999/xlink" x="0px" y="0px"
	 viewBox="0 0 17 16" style="enable-background:new 0 0 17 16;" xml:space="preserve">
<style type="text/css">
	.st0{fill:#FFFFFF;}
</style>
<path d="M1.4,8.4c0.1-0.2,0.3-0.3,0.5-0.3c4.4,0,8.9,0,13.3,0c0.3,0,0.5,0.1,0.5,0.3c0,0.3,0,0.5-0.1,0.8c-0.1,0.2-0.1,0.3-0.2,0.4
	c-0.3,0.5-0.6,1.1-1,1.6c0,0,0,0.1-0.1,0.1c0.4,0.1,0.9,0.2,1.3,0c0,0.3,0,0.6,0,0.9c0,0,0,0.1-0.1,0.1c-0.3,0.1-0.6,0.1-1,0
	c-0.4-0.1-0.7-0.2-1.1-0.4c0,0-0.1,0-0.1,0c-1,0.6-2,0.6-3,0.1c-0.2-0.1-0.3-0.1-0.5,0c-1,0.5-2,0.5-3-0.1c-0.1,0-0.1,0-0.2,0
	c-1,0.6-2.1,0.6-3.1,0c-0.1,0-0.1,0-0.2,0c-0.5,0.4-1.2,0.5-1.8,0.4c-0.1,0-0.2,0-0.3,0c0-0.3,0-0.7,0-1c0.4,0.1,0.9,0.1,1.3-0.1
	c-0.4-0.8-1-1.5-1.3-2.4C1.4,8.8,1.4,8.6,1.4,8.4z M13,9.8c0.4,0,0.7,0,1.1,0c0-0.2,0-0.4,0-0.5c-0.4,0-0.7,0-1.1,0
	C13,9.5,13,9.6,13,9.8z"/>
<path d="M1.4,13.1c0.5,0.1,1,0.1,1.5-0.1c0.2-0.1,0.4-0.2,0.6-0.3c0.1,0,0.1,0,0.2,0c1,0.6,2.1,0.6,3.1,0c0.1,0,0.1,0,0.2,0
	c1,0.6,2.1,0.6,3.1,0c0,0,0.1,0,0.2,0c1,0.6,2.1,0.6,3.1,0c0.1-0.1,0.1,0,0.2,0c0.6,0.3,1.2,0.5,1.8,0.4c0.1,0,0.2,0,0.2-0.1
	c0,0.3,0,0.6,0,0.9c0,0,0,0.1-0.1,0.1c-0.1,0-0.3,0.1-0.4,0.1c-0.6,0-1.2-0.1-1.7-0.4c0,0-0.1,0-0.2,0c-1,0.6-2,0.6-3,0.1
	c-0.2-0.1-0.3-0.1-0.5,0c-1,0.5-2,0.5-3-0.1c-0.1,0-0.1,0-0.2,0c-1,0.6-2.1,0.6-3.1,0c-0.1,0-0.1,0-0.2,0c-0.5,0.4-1.2,0.5-1.8,0.4
	c-0.1,0-0.2,0-0.3,0C1.4,13.8,1.4,13.5,1.4,13.1z"/>
<path class="st0" d="M1.4,9c0.3,0.9,0.9,1.6,1.3,2.4c-0.4,0.1-0.9,0.1-1.3,0.1C1.4,10.7,1.4,9.8,1.4,9z"/>
<path d="M9.7,6c0.1,0,0.1,0,0.2,0c0.8,0,1.6,0,2.4,0c0.1,0,0.2,0,0.3,0c0.1,0,0.1,0,0.2,0c0.7-0.3,1.5-0.6,2.2-0.9c0,0,0.1,0,0.1,0
	c0.1,0.3,0.2,0.5,0.3,0.8c-0.1,0-0.1,0-0.2,0.1c-0.7,0.3-1.4,0.5-2,0.8c-0.1,0-0.1,0.1-0.1,0.2c0,0.3,0,0.5,0,0.8
	c-3.1,0-6.3,0-9.4,0c0-0.2,0-0.4,0-0.6c0,0,0,0,0,0c0-0.3,0-0.3-0.3-0.4C3,6.5,2.7,6.4,2.5,6.4c0.1-0.3,0.1-0.5,0.2-0.8
	c0.3,0.1,0.6,0.1,0.9,0.2c0.1,0,0.2,0,0.2-0.1c0.1-0.2,0.3-0.2,0.5-0.2c0.5,0,1,0,1.6,0c0.3,0,0.4,0.1,0.6,0.5c0-0.1,0-0.1,0-0.2
	c0-0.6,0-1.2,0-1.8c0-0.5,0.3-0.7,0.7-0.7c0.6,0,1.3,0,1.9,0c0.4,0,0.6,0.2,0.7,0.6c0,0.6,0,1.3,0,1.9C9.7,5.8,9.7,5.9,9.7,6z"/>
<path d="M8.6,2.7c-0.4,0-0.7,0-1.1,0c0-0.4,0-0.7,0-1.1c0.4,0,0.7,0,1.1,0C8.6,1.9,8.6,2.3,8.6,2.7z"/>
<path class="st0" d="M13,9.8c0-0.2,0-0.3,0-0.5c0.4,0,0.7,0,1.1,0c0,0.2,0,0.3,0,0.5C13.7,9.8,13.4,9.8,13,9.8z"/>
</svg>
